<svg xmlns="http://www.w3.org/2000/svg" viewBox="0 0 800 800" role="img" aria-labelledby="t">
  <title id="t">Everyday — The Common Athlete</title>
  <defs>
    <linearGradient id="bg" x1="0" y1="0" x2="1" y2="1">
      <stop offset="0" stop-color="#fbfaf7"/><stop offset="1" stop-color="#e8e3d9"/>
    </linearGradient>
    <radialGradient id="sheen" cx="0.7" cy="0.1" r="1">
      <stop offset="0" stop-color="#ffffff" stop-opacity="0.30"/><stop offset="0.65" stop-color="#ffffff" stop-opacity="0"/>
    </radialGradient>
  </defs>
  <rect width="800" height="800" fill="url(#bg)"/>
  <rect width="800" height="800" fill="url(#sheen)"/>
  <g transform="translate(112 20) scale(0.72)">
    <path d="M 354 150 C 354 96 446 96 446 150 C 450 188 444 250 428 272 L 420 250 C 426 200 418 172 400 170 C 382 172 374 200 380 250 L 372 272 C 356 250 350 188 354 150 Z" fill="#6c6e70"/>
    <circle cx="400" cy="160" r="44" fill="#6c6e70"/>
    <rect x="384" y="198" width="32" height="26" fill="#6c6e70"/>
    <path d="M 350 234 C 364 218 436 218 450 234 L 470 258 C 478 322 472 460 462 560 L 338 560 C 328 460 322 322 330 258 Z" fill="#6c6e70"/>
    <path d="M 378 556 L 374 904" stroke="#6c6e70" stroke-width="46" stroke-linecap="round" fill="none"/>
    <path d="M 422 556 L 426 904" stroke="#6c6e70" stroke-width="46" stroke-linecap="round" fill="none"/>
    <path d="M 356 248 C 326 304 312 376 308 452" stroke="#6c6e70" stroke-width="30" stroke-linecap="round" fill="none"/>
    <path d="M 444 248 C 474 304 488 376 492 452" stroke="#6c6e70" stroke-width="30" stroke-linecap="round" fill="none"/>
    <path d="M 330 462 L 470 462 L 468 556 L 462 636 L 416 636 L 408 540 L 400 552 L 392 540 L 384 636 L 338 636 L 332 556 Z" fill="#5B4636"/>
    <path d="M 340 252 L 364 242 C 384 256 416 256 436 242 L 460 252 C 466 300 466 360 460 404 L 340 404 C 334 360 334 300 340 252 Z" fill="#5B4636"/>
  </g>
  <text x="400" y="724" text-anchor="middle" font-family="Helvetica, Arial, sans-serif" font-size="38" font-weight="700" letter-spacing="2" fill="#5B4636">EVERYDAY</text>
  <text x="400" y="758" text-anchor="middle" font-family="Helvetica, Arial, sans-serif" font-size="14" font-weight="600" letter-spacing="3" fill="#6c6e70" opacity="0.8">THE COMMON ATHLETE</text>
</svg>
